<svg width="42" height="42" viewBox="0 0 42 42" fill="none" xmlns="http://www.w3.org/2000/svg">
<rect width="42" height="42" rx="8" fill="#242C32"/>
<path d="M23.5 22.25H22.25V21C22.25 20.6685 22.1183 20.3505 21.8839 20.1161C21.6495 19.8817 21.3315 19.75 21 19.75C20.6685 19.75 20.3505 19.8817 20.1161 20.1161C19.8817 20.3505 19.75 20.6685 19.75 21V22.25H18.5C18.1685 22.25 17.8505 22.3817 17.6161 22.6161C17.3817 22.8505 17.25 23.1685 17.25 23.5C17.25 23.8315 17.3817 24.1495 17.6161 24.3839C17.8505 24.6183 18.1685 24.75 18.5 24.75H19.75V26C19.75 26.3315 19.8817 26.6495 20.1161 26.8839C20.3505 27.1183 20.6685 27.25 21 27.25C21.3315 27.25 21.6495 27.1183 21.8839 26.8839C22.1183 26.6495 22.25 26.3315 22.25 26V24.75H23.5C23.8315 24.75 24.1495 24.6183 24.3839 24.3839C24.6183 24.1495 24.75 23.8315 24.75 23.5C24.75 23.1685 24.6183 22.8505 24.3839 22.6161C24.1495 22.3817 23.8315 22.25 23.5 22.25Z" fill="white" fill-opacity="0.55"/>
<path d="M30.375 14.8125H21.625L18.3375 10.8375C18.2212 10.6941 18.0745 10.5783 17.9081 10.4983C17.7417 10.4183 17.5596 10.3762 17.375 10.375H11.625C10.8083 10.365 10.0208 10.679 9.43512 11.2483C8.84942 11.8176 8.51317 12.5958 8.5 13.4125V28.5875C8.51317 29.4042 8.84942 30.1824 9.43512 30.7517C10.0208 31.321 10.8083 31.635 11.625 31.625H30.375C31.1917 31.635 31.9792 31.321 32.5649 30.7517C33.1506 30.1824 33.4868 29.4042 33.5 28.5875V17.85C33.4868 17.0333 33.1506 16.2551 32.5649 15.6858C31.9792 15.1165 31.1917 14.8025 30.375 14.8125ZM31 28.5625C30.9953 28.6392 30.9753 28.7142 30.9411 28.783C30.9069 28.8518 30.8593 28.9131 30.801 28.9632C30.7427 29.0133 30.675 29.0512 30.6019 29.0747C30.5287 29.0982 30.4515 29.1068 30.375 29.1H11.625C11.5485 29.1068 11.4713 29.0982 11.3982 29.0747C11.325 29.0512 11.2573 29.0133 11.199 28.9632C11.1407 28.9131 11.0931 28.8518 11.0589 28.783C11.0247 28.7142 11.0047 28.6392 11 28.5625V13.4125C11.0047 13.3358 11.0247 13.2608 11.0589 13.192C11.0931 13.1231 11.1407 13.0619 11.199 13.0118C11.2573 12.9617 11.325 12.9237 11.3982 12.9002C11.4713 12.8767 11.5485 12.8682 11.625 12.875H16.7875L20.0375 16.85C20.1538 16.9934 20.3005 17.1092 20.4669 17.1892C20.6333 17.2692 20.8154 17.3113 21 17.3125H30.375C30.4515 17.3057 30.5287 17.3142 30.6019 17.3377C30.675 17.3612 30.7427 17.3992 30.801 17.4493C30.8593 17.4994 30.9069 17.5606 30.9411 17.6295C30.9753 17.6983 30.9953 17.7733 31 17.85V28.5625Z" fill="white" fill-opacity="0.55"/>
</svg>
