<svg width="25" height="22" viewBox="0 0 25 22" fill="none" xmlns="http://www.w3.org/2000/svg">
<path d="M15 11.8752H13.75V10.6252C13.75 10.2937 13.6183 9.97578 13.3839 9.74136C13.1495 9.50694 12.8315 9.37524 12.5 9.37524C12.1685 9.37524 11.8505 9.50694 11.6161 9.74136C11.3817 9.97578 11.25 10.2937 11.25 10.6252V11.8752H10C9.66848 11.8752 9.35054 12.0069 9.11612 12.2414C8.8817 12.4758 8.75 12.7937 8.75 13.1252C8.75 13.4568 8.8817 13.7747 9.11612 14.0091C9.35054 14.2435 9.66848 14.3752 10 14.3752H11.25V15.6252C11.25 15.9568 11.3817 16.2747 11.6161 16.5091C11.8505 16.7435 12.1685 16.8752 12.5 16.8752C12.8315 16.8752 13.1495 16.7435 13.3839 16.5091C13.6183 16.2747 13.75 15.9568 13.75 15.6252V14.3752H15C15.3315 14.3752 15.6495 14.2435 15.8839 14.0091C16.1183 13.7747 16.25 13.4568 16.25 13.1252C16.25 12.7937 16.1183 12.4758 15.8839 12.2414C15.6495 12.0069 15.3315 11.8752 15 11.8752Z" fill="white" fill-opacity="0.38"/>
<path d="M21.875 4.43773H13.125L9.8375 0.462733C9.72118 0.319341 9.57455 0.203499 9.40812 0.12353C9.2417 0.0435618 9.05963 0.00145392 8.875 0.000232944H3.125C2.30826 -0.00979382 1.52083 0.304226 0.935122 0.873533C0.349416 1.44284 0.013166 2.22104 0 3.03773V18.2127C0.013166 19.0294 0.349416 19.8076 0.935122 20.3769C1.52083 20.9462 2.30826 21.2603 3.125 21.2502H21.875C22.6917 21.2603 23.4792 20.9462 24.0649 20.3769C24.6506 19.8076 24.9868 19.0294 25 18.2127V7.47523C24.9868 6.65854 24.6506 5.88034 24.0649 5.31103C23.4792 4.74173 22.6917 4.42771 21.875 4.43773V4.43773ZM22.5 18.1877C22.4953 18.2644 22.4753 18.3394 22.4411 18.4082C22.4069 18.4771 22.3593 18.5384 22.301 18.5885C22.2427 18.6386 22.175 18.6765 22.1019 18.7C22.0287 18.7235 21.9515 18.7321 21.875 18.7252H3.125C3.04846 18.7321 2.97132 18.7235 2.89815 18.7C2.82498 18.6765 2.75726 18.6386 2.699 18.5885C2.64073 18.5384 2.5931 18.4771 2.55892 18.4082C2.52474 18.3394 2.50471 18.2644 2.5 18.1877V3.03773C2.50471 2.96103 2.52474 2.88605 2.55892 2.81722C2.5931 2.74839 2.64073 2.68711 2.699 2.637C2.75726 2.5869 2.82498 2.54898 2.89815 2.52548C2.97132 2.50199 3.04846 2.49341 3.125 2.50023H8.2875L11.5375 6.47523C11.6538 6.61862 11.8005 6.73447 11.9669 6.81444C12.1333 6.8944 12.3154 6.93651 12.5 6.93773H21.875C21.9515 6.93091 22.0287 6.93949 22.1019 6.96298C22.175 6.98648 22.2427 7.0244 22.301 7.0745C22.3593 7.12461 22.4069 7.18589 22.4411 7.25472C22.4753 7.32355 22.4953 7.39853 22.5 7.47523V18.1877Z" fill="white" fill-opacity="0.38"/>
</svg>
